<svg xmlns="http://www.w3.org/2000/svg" width="265.968" height="84.272" viewBox="0 0 265.968 84.272">
  <g id="Grupo_49" data-name="Grupo 49" transform="translate(-8.118 -45.344)">
    <g id="Grupo_38" data-name="Grupo 38" transform="translate(8.118 45.344)">
      <path id="Trazado_5" data-name="Trazado 5" d="M591.029,441c5.306.036-1.135,10.676-3.113,18.538-1.094,4.356.448,8.608,5.438,8.608,4.293,0,5.781-1.434,6.971-2.832.461-.565.855-1.258.728-1.552-.154-.326-1.022-.235-1.361-.235-1.619.027-2.823-.982-1.344-5.718,1.769-5.663,5.293-13.172,6.08-16.108.683-2.533,1.244-6.433-2.547-7.446-3.547-.945-12.6.457-17.565,7.278,0,0,1.543-4.754,2.9-7.681.072-.149.14-.285.19-.393.172-.38.221-.588.086-.814-.163-.267-.8-.33-1.239-.33-.24-.009-.425,0-.425,0a17.1,17.1,0,0,0-6.346,1.19,6.457,6.457,0,0,0-3.492,4.225c-1.583,4.2-4.913,13.53-6.134,16.9v.009c-.615,1.6-12.666,12.8-9.115,2.366.629-1.837,2.424-7.369,4.419-13.245a2.6,2.6,0,0,0,.235-1.144,5.56,5.56,0,0,0-1.144-.728,10.188,10.188,0,0,0-6.962-.669,4.284,4.284,0,0,0-1.131.393,15.125,15.125,0,0,0-.643,1.755c-.19.606-.343,1.085-.343,1.063-4.244,12.634-9.178,15.6-12.133,15.6-6.921,0,1.954-18.827,9.441-21.781,2.971-1.181,9.191-.909,12.539,2.04.167.154.552.552.8.42.358-.185.159-.968.1-1.2-1.262-5.021-8.269-8.8-18.361-6.464-10.223,2.352-16.678,14.8-17.687,22.907-.566,4.546-.52,12.25,7.238,12.25,5.528,0,11.1-5.456,13.566-8.893-2.162,5.5-.321,8.961,4.772,8.961,4.954,0,8.338-3.058,12.413-7.007-.122.434-.23.832-.321,1.167-.751,3.339-.335,5.713,3.175,5.713,3.737,0,5.5-3.212,6.419-5.921.9-2.655,2.909-7.74,2.692-7.165,1.456-3.786,6.9-14.086,11.2-14.059" transform="translate(-440.419 -405.427)" fill="red"/>
      <path id="Trazado_6" data-name="Trazado 6" d="M512.594,438.8a87.509,87.509,0,0,0-1.782,12.652c-.434,5.234,4.985,6.1,7.744,6.211.1,0,.194.009.294.009.163,0,.3.009.443,0a.61.61,0,0,0,.511-.2,1.12,1.12,0,0,0,.095-.746h.009c-.457-3.071.588-12.517,2.624-19.293a21.544,21.544,0,0,0-9.938,1.362" transform="translate(-480.117 -394.844)" fill="red"/>
      <path id="Trazado_7" data-name="Trazado 7" d="M559.743,441.652c8.052,0-1.086,13.914-13.566,16.457,3.6-8.821,8.527-16.457,13.566-16.457M591,457.313c3.746-20.329-9.626-33.669-33.135-33.669-23.581,0-40.436,12.313-40.436,23.911,0,7.17,4.035,12.277,12.526,15.027,1.624.439,3.158.787,4.6,1.063a49.222,49.222,0,0,0,8.984.923h.294c16.886-.2,26.128-11.25,24.576-19.248-1.2-6.152-7.414-7.373-9.549-7.364-10.535.045-18.533,9.454-22.9,19.619-4.551-1.235-7.948-5.107-7.948-10.956,0-9.662,9.49-18.176,25.205-18.176,16.2,0,26.861,9.147,26.861,23.482,0,16.583-13.865,42.245-46.322,42.245-12.281,0-21.767-4.478-21.767-15.33,0-4.736,1.461-7.731,3.375-9.595h0c.244-.244.886-.755.85-.972s-.231-.367-1.122-.7a11.252,11.252,0,0,0-13.72,8.613c-3.108,12.906,9.617,22.374,32.04,22.374,33.841,0,53.274-17.841,57.594-41.25" transform="translate(-500.903 -423.644)" fill="red"/>
      <path id="Trazado_8" data-name="Trazado 8" d="M604.86,465.426c-2.027-.126-2.524-.212-2.524-.212-2.967-.375-6.175-1.873-6.175-6.573,0-8.029,11.268-18.158,6.111-21.9-4.333-3.144-7.246,3.537-15.954,2.456,0,0,1.1-9.047-5.79-7.088-2.51.724-2.913,4.243-2.57,5.89,1.52,7.12,11.7,6.1,15.466,5.143-5.569,5.894-16.76,26.255.447,26.255a23.2,23.2,0,0,0,9.405-2.1c1.719-.8,2.063-1.846,1.583-1.868" transform="translate(-339.09 -406.435)" fill="red"/>
      <path id="Trazado_9" data-name="Trazado 9" d="M597.891,444.9c-.113-2.746-1.095-11.083-8.853-11.083-4.343,0-8.966,4.352-11.924,7.69,0,0,1.416-4.419,2.678-7.224.149-.348.3-.66.448-.95a.707.707,0,0,0,.032-.688c-.045-.072-.2-.385-1.533-.335a19.267,19.267,0,0,0-6.69,1.312c-2.66,1.131-3.515,4.727-5.3,9.735-2.239,6.329-7.695,24-11.508,34.379a47.659,47.659,0,0,1-4.374,9.061v.009a.266.266,0,0,0-.045.063c-.073.113-.145.231-.222.344-.353.638-.448,1.4.289,1.714,8.1,3.167,11.083-4.437,11.083-4.437l0,0c.131-.3.271-.6.393-.886,2.913-6.627,4.506-13.182,8.419-23.708,7.183-19.343,12.526-19.085,13.932-19.085,7.22,0-2.053,23.02-11.2,22.5-.407-.027-.927-.168-1.126.041-.149.163-.1.565.149.977.787,1.5,3.3,3.741,7.681,3.741,13.236,0,17.872-17.325,17.665-23.174" transform="translate(-396.956 -405.428)" fill="red"/>
      <path id="Trazado_10" data-name="Trazado 10" d="M589.87,437.809c5.555,0,1.66,12.073-12.8,12.9,1.922-5.292,6.636-12.9,12.8-12.9m13.793,8.541a27.534,27.534,0,0,1-11.314,12.177,24.855,24.855,0,0,1-4.266,1.714c-.244.059-.488.14-.733.2l-.054.009a21.193,21.193,0,0,1-3.877.561c-.118.009-.231.009-.348.009-4.954.009-7.03-3.049-6.492-6.849l.009-.027c17.8-.3,23.586-11.132,23.586-14.543,0-3.465-2.086-7.292-9.205-7.292-16.439,0-25.006,15.842-25.006,24.518,0,5.618,2.574,11.246,12.784,11.246H579a31.578,31.578,0,0,0,3.248-.163,27.471,27.471,0,0,0,17.185-8.038A43.026,43.026,0,0,0,609.7,444.309a7.415,7.415,0,0,0-6.039,2.041" transform="translate(-364.092 -405.425)" fill="red"/>
    </g>
  </g>
</svg>
